# xmcd CD database file
#
# Track frame offsets:
#	150
#	14543
#	26720
#	38163
#	57375
#	71165
#	81150
#	112870
#	121605
#	129255
#	141505
#
# Disc length: 2188 seconds
#
# Revision: 6
# Processed by: cddbd v1.5.2PL0 Copyright (c) Steve Scherf et al.
# Submitted via: CDex 1.51
#
DISCID=94088a0b
DTITLE=Various Artist - Zabriskie Point - disc one [1997 Remaster]
DYEAR=1970
DGENRE=Soundtrack
TTITLE0=Heart Beat, Pig Meat - The Pink Floyd [Roger Waters/David Gilmour/Nick Mason/Rick Wright]
TTITLE1=Brother Mary - The Kaleidoscope [David Lindley]
TTITLE2=Dark Star (excerpt) - The Grateful Dead [Robert Hunter/Jerry Garcia/Ron McKernan/Bob Weir/Phil Lesh/Mickey Hart/Bill Kreutzmann]
TTITLE3=Crumbling Land - The Pink Floyd [Roger Waters/David Gilmour/Nick Mason/Rick Wright]
TTITLE4=Tennessee Waltz - Patti Page [Pee Wee King/Redd Stewart]
TTITLE5=Sugar Babe - The Youngbloods [Jesse Colin Young]
TTITLE6=Love Scene - Jerry Garcia (The Grateful Dead) [Jerry Garcia]
TTITLE7=I Wish I Was A Single Girl - Roscoe Holcomb [Arr. Roscoe Holcomb]
TTITLE8=Mickey's Tune - The Kaleidoscope [David Lindley]
TTITLE9=Dance Of Death - John Fahey [John Fahey]
TTITLE10=Come In Number 51, Your Time Is Up - The Pink Floyd [Roger Waters/David Gilmour/Nick Mason/Rick Wright]
EXTD=YEAR: 1970
EXTT0=
EXTT1=
EXTT2=
EXTT3=
EXTT4=
EXTT5=
EXTT6=
EXTT7=
EXTT8=
EXTT9=
EXTT10=
PLAYORDER=
